<svg width="605" height="666" xmlns="http://www.w3.org/2000/svg" xmlns:xlink="http://www.w3.org/1999/xlink" xml:space="preserve" overflow="hidden">
  <style>                             .favicon{fill:#000}
    @media(prefers-color-scheme:dark){.favicon{fill:#FFF}}
  </style>
  <defs>
    <clipPath id="clip0">
      <rect x="1242" y="418" width="605" height="666"/>
    </clipPath>
  </defs>
  <g clip-path="url(#clip0)" transform="translate(-1242 -418)">
    <path class="favicon" d="M1419.02 832.98C1461.73 832.98 1512.88 863.965 1572.46 925.936 1623.23 978.923 1659.5 1005.42 1681.27 1005.42 1703.69 1005.42 1723.64 996.329 1741.12 978.154 1757.01 958.294 1764.95 935.646 1764.95 910.208 1764.95 886.711 1779.67 874.383 1809.11 873.223 1824.91 873.223 1837.54 884.27 1847 906.363 1847 953.943 1831.46 995.718 1800.39 1031.69 1770.5 1066.56 1731.95 1084 1684.72 1084 1641.75 1084 1598.84 1064.19 1555.99 1024.57 1516.01 986.863 1484.14 958.721 1460.37 940.144 1436.65 922.347 1420.42 912.826 1411.68 911.581 1394.22 911.581 1374.05 920.938 1351.2 939.649 1335.12 957.727 1326.46 978.422 1325.2 1001.74 1325.2 1029.76 1311.33 1043.77 1283.59 1043.77 1260 1043.77 1246.14 1031.33 1242 1006.44 1242 962.011 1260.44 920.663 1297.32 882.396 1325.7 851.222 1366.26 834.749 1419.02 832.98ZM1741.23 418C1773.17 418 1799.03 429.694 1818.83 453.081L1828.36 467.399 1838.29 487.227 1844.69 521.868C1844.69 554.142 1834.99 579.994 1815.57 599.427 1806.05 608.154 1795.5 616.082 1783.92 623.21 1775.3 626.079 1760.48 628.325 1739.45 629.948 1708.73 629.948 1683.34 619.909 1663.28 599.829 1645.4 580.238 1635.61 554.788 1633.92 523.48 1633.92 495.222 1642.64 471.121 1660.09 451.177 1678.61 430.89 1705.65 419.831 1741.23 418ZM1364.14 418C1394.89 418 1419.01 429.37 1436.5 452.11L1447.76 467.032 1458.14 487.777 1463.12 521.411C1463.12 554.868 1453.65 580.641 1434.71 598.731 1416.5 619.542 1391.03 629.948 1358.3 629.948 1328.07 629.948 1302.54 619.53 1281.71 598.694 1263.83 579.103 1254.04 554.025 1252.34 523.461 1252.34 497.047 1260.91 472.714 1278.04 450.463 1296.97 429.797 1325.67 418.977 1364.14 418Z" fill-rule="evenodd"/>
  </g>
</svg>