<svg width="1790" height="1796" xmlns="http://www.w3.org/2000/svg" xmlns:xlink="http://www.w3.org/1999/xlink" xml:space="preserve" overflow="hidden"><defs><clipPath id="clip0"><rect x="77" y="416" width="1790" height="1796"/></clipPath></defs><g clip-path="url(#clip0)" transform="translate(-77 -416)"><rect x="1235" y="1518" width="399" height="400" fill="#24A148"/><text fill="#DEFBE6" font-family="Clarendon,Clarendon_MSFontService,sans-serif" font-weight="500" font-size="423" transform="matrix(1 0 0 1 1290.57 1858)">T</text><rect x="1235" y="1057" width="399" height="401" fill="#24A148"/><text fill="#DEFBE6" font-family="Clarendon,Clarendon_MSFontService,sans-serif" font-weight="500" font-size="423" transform="matrix(1 0 0 1 1256.48 1412)">A</text><rect x="775" y="1518" width="399" height="400" fill="#24A148"/><text fill="#DEFBE6" font-family="Clarendon,Clarendon_MSFontService,sans-serif" font-weight="500" font-size="423" transform="matrix(1 0 0 1 799.901 1858)">O</text><rect x="775" y="1057" width="399" height="401" fill="#24A148"/><text fill="#DEFBE6" font-family="Clarendon,Clarendon_MSFontService,sans-serif" font-weight="500" font-size="423" transform="matrix(1 0 0 1 796.464 1412)">A</text><rect x="315" y="1518" width="399" height="400" fill="#24A148"/><text fill="#DEFBE6" font-family="Clarendon,Clarendon_MSFontService,sans-serif" font-weight="500" font-size="423" transform="matrix(1 0 0 1 370.536 1858)">T</text><rect x="315" y="1057" width="399" height="401" fill="#24A148"/><text fill="#DEFBE6" font-family="Clarendon,Clarendon_MSFontService,sans-serif" font-weight="500" font-size="423" transform="matrix(1 0 0 1 331.005 1412)">N</text><rect x="1235" y="597" width="399" height="400" fill="#24A148"/><text fill="#DEFBE6" font-family="Clarendon,Clarendon_MSFontService,sans-serif" font-weight="500" font-size="423" transform="matrix(1 0 0 1 1284.55 952)">L</text><rect x="775" y="597" width="399" height="400" fill="#24A148"/><text fill="#DEFBE6" font-family="Clarendon,Clarendon_MSFontService,sans-serif" font-weight="500" font-size="423" transform="matrix(1 0 0 1 809.641 952)">P</text><rect x="315" y="597" width="399" height="400" fill="#24A148"/><text fill="#DEFBE6" font-family="Clarendon,Clarendon_MSFontService,sans-serif" font-weight="500" font-size="423" transform="matrix(1 0 0 1 336.448 952)">A</text></g></svg>